# xmcd CD database file
#
# Track frame offsets:
#	150
#	24243
#	43833
#	78660
#	97813
#	110493
#	147635
#	194328
#	218735
#	246143
#	271973
#
# Disc length: 3939 seconds
#
# Revision: 0
# Processed by: cddbd v1.5.1PL0 Copyright (c) Steve Scherf et al.
# Submitted via: CDex 1.51
#
DISCID=990f610b
DTITLE=David and Steve Gordon - Peaceful Evening
DYEAR=1982
DGENRE=New Age
TTITLE0=Dusk
TTITLE1=Changing Hues
TTITLE2=Under a Painted Sky
TTITLE3=Amethyst and Amber
TTITLE4=Deepening
TTITLE5=Circle of Warmth
TTITLE6=Nightflyer
TTITLE7=Gentle Breeze
TTITLE8=Radiant Sea
TTITLE9=Healing
TTITLE10=Evenglow
EXTD=YEAR: 1982
EXTT0=
EXTT1=
EXTT2=
EXTT3=
EXTT4=
EXTT5=
EXTT6=
EXTT7=
EXTT8=
EXTT9=
EXTT10=
PLAYORDER=
